<svg xmlns="http://www.w3.org/2000/svg" viewBox="0 0 112.88 40.96"><defs><style>.cls-1,.cls-2,.cls-3,.cls-4{fill:#773718;}.cls-2{font-size:5.85px;}.cls-2,.cls-4{font-family:MarkerFelt-Wide, Marker Felt;}.cls-3{font-size:25.04px;font-family:NiDA-Bayon, NiDA Bayon;}.cls-4{font-size:5.12px;}</style></defs><g id="Layer_2" data-name="Layer 2"><g id="Layer_1-2" data-name="Layer 1"><g id="Logo_Nila_Tea" data-name="Logo Nila Tea"><path class="cls-1" d="M19.92,12.28c-1.13-1-1.21-1.87-.29-3L20,8.81a1.91,1.91,0,0,0-.72-3.06l-.35-.18a.37.37,0,0,0,0,.14A1.9,1.9,0,0,1,18.71,8a3.09,3.09,0,0,0-.26.37A2.55,2.55,0,0,0,19.92,12.28Z"/><path class="cls-1" d="M17.69,10.81a1.39,1.39,0,0,1-.09-2.07,3.81,3.81,0,0,0,.24-.32,1.41,1.41,0,0,0-.35-2.12l-.2-.13a.22.22,0,0,0,0,.09,1.45,1.45,0,0,1-.22,1.57l-.17.25A1.85,1.85,0,0,0,17.69,10.81Z"/><path class="cls-1" d="M20.46,11.44a.94.94,0,0,1-.08-1,4.15,4.15,0,0,1,.3-.43.85.85,0,0,0,.13-.93c-.22.3-.44.62-.67.92C19.7,10.59,19.79,11.06,20.46,11.44Z"/><path class="cls-1" d="M33.9,17.77l.21-.18c.77-.68.76-1-.07-1.66-1.65-1.3-1.65-1.3-.47-3,.54-.81.41-1.34-.52-1.62-1.76-.53-2.23-.33-1.4-2.82a.94.94,0,0,0,.06-.15c.19-.67,0-1-.72-1.09-.45,0-.9,0-1.35,0-.93,0-1.14-.28-1.16-1.21,0-.21,0-.43,0-.64,0-1.4-.22-1.57-1.58-1.26C25,4.47,25,4.47,24.36,2.68c-.44-1.15-.66-1.22-1.69-.56C21,3.2,21,3.2,19.72,1.65c-.74-.92-1.07-.92-1.8,0-1.3,1.68-1.24,1.61-2.91.47-1.06-.73-1.35-.59-1.75.64-.47,1.42-.65,2.06-2.3,1.31A2.44,2.44,0,0,0,10.57,4C9.46,3.77,9.2,3.93,9.21,5,9.22,7.21,9,7.18,7,7.18c-1,0-1.28.35-1,1.33.58,2,.58,2-1.41,2.74-.92.33-1.1.81-.54,1.6,1.29,1.82,1.32,1.79-.5,3.1-.78.57-.78,1,0,1.63l.26.19H0v.58H38.51v-.58Zm-27.59-1a12.52,12.52,0,0,1,25,.11c0,.31,0,.61,0,.91H26.62c1.41-.95,2.09-2.32,1.55-3.16A1.72,1.72,0,0,0,26.42,14c0-.2.06-.4.08-.59a.86.86,0,0,0-.23-.67.88.88,0,0,0-.66-.29h-13a.9.9,0,0,0-.67.29.86.86,0,0,0-.22.67,8.61,8.61,0,0,0,1.61,4.32h-7C6.32,17.44,6.31,17.1,6.31,16.75Zm18.64.9a8.39,8.39,0,0,0,1.28-2.72c.55-.12,1,0,1.14.19a.88.88,0,0,1-.14.89,3.73,3.73,0,0,1-1.17,1.13A4.06,4.06,0,0,1,25,17.65ZM5.26,16.5a13.56,13.56,0,1,1,27.1.93c0,.12,0,.23,0,.34h-.58c0-.32,0-.64,0-1a13,13,0,0,0-25.95,0c0,.34,0,.67,0,1h-.6C5.26,17.35,5.25,16.93,5.26,16.5Z"/><path class="cls-1" d="M0,24.66H6.11c-.43,1.66-.3,1.68,1.69,1.73,1.11,0,1.34.26,1.39,1.35.11,2.17.11,2.17,2.17,1.56.94-.27,1.28-.11,1.64.79.14.34.21.7.34,1.05.28.73.66.88,1.35.5.4-.23.76-.55,1.16-.79a.9.9,0,0,1,1.38.19,11.54,11.54,0,0,0,.92,1.17.75.75,0,0,0,1.31,0c.3-.34.55-.71.83-1,.55-.66.92-.71,1.61-.24.37.25.74.5,1.12.74.59.36,1,.18,1.21-.46.14-.39.33-.78.43-1.18a1,1,0,0,1,1.3-.79c.41.1.8.27,1.2.39.83.25,1.27-.06,1.31-.92,0-.42,0-.84,0-1.27a.93.93,0,0,1,.94-1,9.61,9.61,0,0,1,1,0c1.31.1,1.71-.32,1.12-1.74h7v-.58H0Zm28.52,0a12.33,12.33,0,0,1-9.74,4.6,12.47,12.47,0,0,1-9.66-4.6ZM18.75,30.3a13.43,13.43,0,0,1-11-5.64h.74a13,13,0,0,0,10.3,5.07,12.83,12.83,0,0,0,10.28-5.07h.69A13.5,13.5,0,0,1,18.75,30.3Z"/><text class="cls-2" transform="translate(8.84 23.65)">Nila Tea</text><text class="cls-3" transform="translate(47.24 26.29)">នីឡា ធី</text><text class="cls-4" transform="translate(83.05 34.32) scale(0.88 1)">010​ 612 989</text><rect class="cls-1" x="83.4" y="28.34" width="27.74" height="0.24"/></g></g></g></svg>